<?xml version="1.0" encoding="UTF-8" standalone="no"?>
<!DOCTYPE svg PUBLIC "-//W3C//DTD SVG 1.1//EN" "http://www.w3.org/Graphics/SVG/1.1/DTD/svg11.dtd">
<!-- Created with Vectornator (http://vectornator.io/) -->
<svg height="100%" stroke-miterlimit="10" style="fill-rule:nonzero;clip-rule:evenodd;stroke-linecap:round;stroke-linejoin:round;" version="1.1" viewBox="0 0 1024 1024" width="100%" xml:space="preserve" xmlns="http://www.w3.org/2000/svg" xmlns:vectornator="http://vectornator.io" xmlns:xlink="http://www.w3.org/1999/xlink">
<defs>
<clipPath id="TextBounds">
<rect height="481.488" width="941.815" x="41.0926" y="271.256"/>
</clipPath>
</defs>
<g id="Ebene-1" vectornator:layerName="Ebene 1">
<g fill="#166534" opacity="1" stroke="none">
<path clip-path="url(#TextBounds)" d="M154.993 501.256C167.259 501.256 178.726 503.256 189.393 507.256C200.059 511.256 209.326 517.256 217.193 525.256C225.059 533.256 231.193 543.39 235.593 555.656C239.993 567.923 242.193 582.323 242.193 598.856C242.193 615.656 239.926 630.19 235.393 642.456C230.859 654.723 224.526 664.856 216.393 672.856C208.259 680.856 198.459 686.79 186.993 690.656C175.526 694.523 162.993 696.456 149.393 696.456C136.326 696.456 124.526 694.923 113.993 691.856C103.459 688.79 94.8593 685.256 88.1926 681.256C82.5926 677.79 78.726 674.39 76.5926 671.056C74.4593 667.723 73.3926 663.256 73.3926 657.656L73.3926 432.056C74.726 431.523 76.7926 430.923 79.5926 430.256C82.3926 429.59 85.3926 429.256 88.5926 429.256C99.7926 429.256 105.393 434.056 105.393 443.656L105.393 515.256C111.259 511.523 118.259 508.256 126.393 505.456C134.526 502.656 144.059 501.256 154.993 501.256ZM150.193 527.656C140.859 527.656 132.393 529.323 124.793 532.656C117.193 535.99 110.726 539.923 105.393 544.456L105.393 657.656C109.393 660.59 115.193 663.39 122.793 666.056C130.393 668.723 139.259 670.056 149.393 670.056C158.459 670.056 166.659 668.656 173.993 665.856C181.326 663.056 187.659 658.723 192.993 652.856C198.326 646.99 202.459 639.59 205.393 630.656C208.326 621.723 209.793 611.123 209.793 598.856C209.793 586.59 208.326 575.923 205.393 566.856C202.459 557.79 198.326 550.39 192.993 544.656C187.659 538.923 181.326 534.656 173.993 531.856C166.659 529.056 158.726 527.656 150.193 527.656Z"/>
<path clip-path="url(#TextBounds)" d="M326.193 690.456C324.859 690.99 322.859 691.59 320.193 692.256C317.526 692.923 314.593 693.256 311.393 693.256C299.926 693.256 294.193 688.456 294.193 678.856L294.193 507.256C295.526 506.723 297.593 506.123 300.393 505.456C303.193 504.79 306.193 504.456 309.393 504.456C320.593 504.456 326.193 509.39 326.193 519.256L326.193 690.456ZM289.393 448.056C289.393 442.456 291.326 437.723 295.193 433.856C299.059 429.99 304.059 428.056 310.193 428.056C316.326 428.056 321.259 429.99 324.993 433.856C328.726 437.723 330.593 442.456 330.593 448.056C330.593 453.656 328.726 458.39 324.993 462.256C321.259 466.123 316.326 468.056 310.193 468.056C304.059 468.056 299.059 466.123 295.193 462.256C291.326 458.39 289.393 453.656 289.393 448.056Z"/>
<path clip-path="url(#TextBounds)" d="M470.993 501.256C483.259 501.256 494.726 503.256 505.393 507.256C516.059 511.256 525.326 517.256 533.193 525.256C541.059 533.256 547.193 543.39 551.593 555.656C555.993 567.923 558.193 582.323 558.193 598.856C558.193 615.656 555.926 630.19 551.393 642.456C546.859 654.723 540.526 664.856 532.393 672.856C524.259 680.856 514.459 686.79 502.993 690.656C491.526 694.523 478.993 696.456 465.393 696.456C452.326 696.456 440.526 694.923 429.993 691.856C419.459 688.79 410.859 685.256 404.193 681.256C398.593 677.79 394.726 674.39 392.593 671.056C390.459 667.723 389.393 663.256 389.393 657.656L389.393 432.056C390.726 431.523 392.793 430.923 395.593 430.256C398.393 429.59 401.393 429.256 404.593 429.256C415.793 429.256 421.393 434.056 421.393 443.656L421.393 515.256C427.259 511.523 434.259 508.256 442.393 505.456C450.526 502.656 460.059 501.256 470.993 501.256ZM466.193 527.656C456.859 527.656 448.393 529.323 440.793 532.656C433.193 535.99 426.726 539.923 421.393 544.456L421.393 657.656C425.393 660.59 431.193 663.39 438.793 666.056C446.393 668.723 455.259 670.056 465.393 670.056C474.459 670.056 482.659 668.656 489.993 665.856C497.326 663.056 503.659 658.723 508.993 652.856C514.326 646.99 518.459 639.59 521.393 630.656C524.326 621.723 525.793 611.123 525.793 598.856C525.793 586.59 524.326 575.923 521.393 566.856C518.459 557.79 514.326 550.39 508.993 544.656C503.659 538.923 497.326 534.656 489.993 531.856C482.659 529.056 474.726 527.656 466.193 527.656Z"/>
<path clip-path="url(#TextBounds)" d="M608.193 507.256C609.526 506.723 611.593 506.123 614.393 505.456C617.193 504.79 620.193 504.456 623.393 504.456C634.593 504.456 640.193 509.39 640.193 519.256L640.193 622.056C640.193 639.39 644.726 651.723 653.793 659.056C662.859 666.39 675.393 670.056 691.393 670.056C702.059 670.056 711.126 668.923 718.593 666.656C726.059 664.39 731.926 662.056 736.193 659.656L736.193 507.256C737.526 506.723 739.593 506.123 742.393 505.456C745.193 504.79 748.059 504.456 750.993 504.456C762.459 504.456 768.193 509.39 768.193 519.256L768.193 658.456C768.193 664.056 767.459 668.523 765.993 671.856C764.526 675.19 760.993 678.456 755.393 681.656C749.259 685.123 740.793 688.456 729.993 691.656C719.193 694.856 706.193 696.456 690.993 696.456C664.326 696.456 643.859 690.59 629.593 678.856C615.326 667.123 608.193 648.723 608.193 623.656L608.193 507.256Z"/>
<path clip-path="url(#TextBounds)" d="M958.593 642.056C958.593 659.123 952.326 672.456 939.793 682.056C927.259 691.656 909.126 696.456 885.393 696.456C875.259 696.456 865.926 695.59 857.393 693.856C848.859 692.123 841.593 689.856 835.593 687.056C829.593 684.256 824.926 681.056 821.593 677.456C818.259 673.856 816.593 670.19 816.593 666.456C816.593 663.256 817.459 660.19 819.193 657.256C820.926 654.323 823.526 651.79 826.993 649.656C834.193 654.99 842.593 659.723 852.193 663.856C861.793 667.99 872.726 670.056 884.993 670.056C912.726 670.056 926.593 660.723 926.593 642.056C926.593 626.856 917.393 616.99 898.993 612.456L865.793 603.656C849.526 599.39 837.659 593.19 830.193 585.056C822.726 576.923 818.993 566.456 818.993 553.656C818.993 546.723 820.393 540.056 823.193 533.656C825.993 527.256 830.326 521.656 836.193 516.856C842.059 512.056 849.326 508.256 857.993 505.456C866.659 502.656 876.859 501.256 888.593 501.256C907.259 501.256 922.326 503.99 933.793 509.456C945.259 514.923 950.993 521.256 950.993 528.456C950.993 531.923 950.126 534.99 948.393 537.656C946.659 540.323 944.326 542.323 941.393 543.656C936.593 540.456 929.793 536.99 920.993 533.256C912.193 529.523 901.793 527.656 889.793 527.656C877.793 527.656 868.259 529.923 861.193 534.456C854.126 538.99 850.593 545.39 850.593 553.656C850.593 559.79 852.593 564.99 856.593 569.256C860.593 573.523 867.259 576.723 876.593 578.856L904.193 585.656C922.326 590.19 935.926 596.923 944.993 605.856C954.059 614.79 958.593 626.856 958.593 642.056Z"/>
</g>
</g>
</svg>
